# xmcd
#
# Track frame offsets:
#	150
#	13352
#	25969
#	42108
#	55837
#	68442
#	81019
#	95228
#	108812
#	128113
#	142285
#	162349
#	177240
#	194116
#	207767
#
# Disc length: 2973 seconds
#
# Revision: 1
# Processed by: cddbd v1.5.1PL0 Copyright (c) Steve Scherf et al.
# Submitted via: audiograbber 1.83.01
#
DISCID=d60b9b0f
DTITLE=Joao Mulato and Douradinho - Carroca Velha
DYEAR=1900
DGENRE=
TTITLE0=Paixao de Tres Lagoas
TTITLE1=Beijo Medroso
TTITLE2=Nao da Certo o Nosso Amor
TTITLE3=A Noite Um Beijo, De Dia Adeus
TTITLE4=Mulher Dividida
TTITLE5=O Nosso Episodio
TTITLE6=A Falta Sua
TTITLE7=A Mulher Que Eu Amava
TTITLE8=Carroca Velha
TTITLE9=Violeiro Sem Viola
TTITLE10=Carreteiro E Cantador
TTITLE11=Ilusao de Uma Vida
TTITLE12=Violeiro Furacao
TTITLE13=Anjos da Rua
TTITLE14=Viola Confianca da Lida
EXTD=
EXTT0=
EXTT1=
EXTT2=
EXTT3=
EXTT4=
EXTT5=
EXTT6=
EXTT7=
EXTT8=
EXTT9=
EXTT10=
EXTT11=
EXTT12=
EXTT13=
EXTT14=
PLAYORDER=
